<svg id="Capa_1" enable-background="new 0 0 512 512" height="512" viewBox="0 0 512 512" width="512" xmlns="http://www.w3.org/2000/svg"><g><g><g><path d="m256 512c-68.38 0-132.667-26.629-181.019-74.981s-74.981-112.639-74.981-181.019 26.629-132.667 74.981-181.019 112.639-74.981 181.019-74.981 132.667 26.629 181.019 74.981 74.981 112.639 74.981 181.019-26.629 132.667-74.981 181.019-112.639 74.981-181.019 74.981zm0-479.765c-59.77 0-115.962 23.276-158.225 65.539s-65.54 98.456-65.54 158.226 23.276 115.962 65.539 158.225 98.456 65.54 158.226 65.54 115.962-23.276 158.226-65.539c87.245-87.246 87.245-229.205 0-316.451-42.264-42.264-98.456-65.54-158.226-65.54z" fill="#5cceff"/></g><g><path d="m225.868 477.753c-35.533-4.755-69.079-17.898-98.291-38.458-6.299-4.433-14.888-3.644-20.353 1.785-.077.076-.153.152-.23.229-7.067 7.02-6.034 18.7 2.113 24.432 33.393 23.493 71.736 38.516 112.349 43.96 9.62 1.29 18.2-6.108 18.2-15.814v-.323c0-7.977-5.883-14.753-13.788-15.811z" fill="#73e1ff"/></g><g fill="#73e1ff"><path d="m32.939 238.396c2.129-27.556 9.243-54.105 20.918-78.594 2.929-6.143 1.747-13.454-3.065-18.266-.079-.079-.158-.158-.237-.237-7.797-7.797-20.95-5.52-25.707 4.428-13.432 28.091-21.626 58.557-24.068 90.182-.719 9.314 6.565 17.297 15.907 17.297h.338c8.369 0 15.269-6.467 15.914-14.81z"/><path d="m34.957 291.001c-.015-.098-.03-.195-.046-.293-1.049-6.769-6.809-11.8-13.659-11.8h-4.673c-8.423 0-14.925 7.482-13.669 15.811.105.697.213 1.394.324 2.09 1.309 8.214 9.589 13.376 17.564 11.01 1.493-.443 2.984-.885 4.474-1.326 6.673-1.979 10.761-8.615 9.685-15.492z"/></g><path d="m475.222 388.412c-10.595 17.472-23.381 33.793-38.199 48.611-24.81 24.81-53.822 43.904-85.424 56.605 18.6-16.161 23.736-35.061 24.596-48.793 13.593-8.693 26.347-18.933 38.027-30.613 15.043-15.043 27.497-31.72 37.35-49.46z" fill="#27b2ff"/><path d="m465.147 422.679h-14.827c39.909-46.38 61.68-104.855 61.68-166.679 0-68.38-26.629-132.667-74.981-181.019s-112.639-74.981-181.019-74.981-132.667 26.629-181.019 74.981l22.793 22.793c42.264-42.263 98.456-65.539 158.226-65.539s115.962 23.276 158.226 65.539c82.166 82.166 86.937 212.853 14.339 300.67v-12.346c0-8.901-7.216-16.118-16.118-16.118-8.901 0-16.118 7.216-16.118 16.118v52.698c0 8.901 7.216 16.118 16.118 16.118h52.699c8.901 0 16.118-7.216 16.118-16.118 0-8.901-7.216-16.117-16.117-16.117z" fill="#12adb5"/><path d="m498.32 338.925c3.047-8.931 5.6-18.044 7.642-27.306 2.205-9.999-5.438-19.47-15.678-19.47h-.314c-7.476 0-14.014 5.153-15.63 12.452-1.762 7.957-3.962 15.835-6.598 23.598-2.369 6.977.192 14.665 6.347 18.715.092.06.183.121.275.181 8.728 5.739 20.583 1.716 23.956-8.17z" fill="#3cd3d3"/><path d="m417.656 57.483c-36.765-30.05-80.666-49.029-127.583-55.23-9.605-1.27-18.16 6.122-18.16 15.811v.318c0 7.98 5.891 14.762 13.803 15.806 40.979 5.405 79.327 21.964 111.453 48.184 6.476 5.286 15.93 4.69 21.671-1.386.074-.078.148-.156.221-.234 6.344-6.71 5.744-17.426-1.405-23.269z" fill="#3cd3d3"/><path d="m181.612 44.837c-31.193 10.96-59.775 28.872-83.833 52.941l-22.802-22.801c11.164-11.164 23.177-21.168 35.889-29.947 13.109 3.794 35.007 5.867 70.746-.193z" fill="#0d8ba0"/><g><g><path d="m99.552 142.019c-8.901 0-16.118-7.216-16.118-16.118v-36.58h-36.58c-8.901 0-16.118-7.216-16.118-16.118s7.216-16.118 16.118-16.118h52.698c8.901 0 16.118 7.216 16.118 16.118v52.698c0 8.902-7.216 16.118-16.118 16.118z" fill="#5cceff"/></g></g><g><path d="m425.053 291.33c-16.301 78.418-85.8 137.344-169.053 137.344s-152.752-58.926-169.053-137.344c6.812-2.955 14.925-5.254 27.497-5.254 35.384 0 35.384 18.159 70.778 18.159 35.373 0 35.373-18.159 70.767-18.159s35.394 18.159 70.778 18.159c35.394 0 35.394-18.159 70.778-18.159 12.583 0 20.695 2.299 27.508 5.254z" fill="#73e1ff"/><path d="m388.455 366.771c-31.666 37.834-79.256 61.903-132.455 61.903s-100.789-24.069-132.455-61.903c26.594 2.805 29.614 17.708 61.677 17.708 35.373 0 35.373-18.159 70.767-18.159s35.394 18.159 70.778 18.159c32.074 0 35.083-14.914 61.688-17.708z" fill="#5cceff"/><path d="m425.106 291.051c-2.213 10.756-5.437 21.157-9.552 31.086-4.846-1.182-10.563-1.923-17.708-1.923-35.47 0-35.47 18.202-70.928 18.202-35.47 0-35.47-18.202-70.928-18.202s-35.459 18.202-70.918 18.202-35.459-18.202-70.928-18.202c-7.145 0-12.851.741-17.697 1.913-4.126-9.918-7.339-20.319-9.552-31.075 6.759-2.901 14.828-5.136 27.25-5.136 35.47 0 35.47 18.202 70.928 18.202s35.459-18.202 70.918-18.202 35.459 18.202 70.928 18.202c35.459 0 35.459-18.202 70.928-18.202 12.421-.002 20.49 2.233 27.259 5.135z" fill="#b6f0ff"/><path d="m114.143 304.883c0-11.334 11.06-19.365 21.844-15.878 12.197 3.944 19.087 10.612 33.171 13.585 7.285 1.547 12.454 8.059 12.454 15.516v1.246c0 11.175-11.239 18.847-21.662 14.796-10.791-4.189-17.812-10.318-31.913-12.815-8.013-1.418-13.894-8.313-13.894-16.45z" fill="#eefdff"/></g></g><g><path d="m256 80.274c-5.315 0-10.12 3.103-12.363 7.921-22.766 48.887-69.018 111.677-69.018 145.562 0 44.946 36.436 75.793 81.381 75.793s81.381-30.848 81.381-75.793c0-33.885-46.252-96.675-69.018-145.562-2.243-4.818-7.048-7.921-12.363-7.921z" fill="#73e1ff"/><path d="m337.377 233.762c0 44.937-36.432 75.793-81.381 75.793-5.711 0-11.276-.503-16.652-1.453 33.069-22.161 54.828-59.868 54.828-102.659 0-43.73-22.731-82.152-57.018-104.09 2.313-4.47 4.481-8.862 6.482-13.154 2.246-4.828 7.052-7.923 12.36-7.923 5.32 0 10.125 3.096 12.371 7.923 22.765 48.883 69.01 111.679 69.01 145.563z" fill="#5cceff"/><path d="m196.98 226.134c7.105.484 13.658-3.548 16.337-10.045 1.109-2.69 2.456-5.742 4.09-9.193 6.584-13.89 15.412-29.389 24.841-45.8.115-.2.506-.882 1.072-1.87 4.4-7.678 2.087-17.458-5.29-22.346-8.059-5.34-18.953-2.761-23.769 5.622-12.218 21.271-24.307 42.38-31.859 60.624-4.354 10.517 2.821 22.207 14.177 22.981z" fill="#b6f0ff"/><g><g><g><path d="m252.436 256.19v-18.818c0-19.232 15.591-34.823 34.823-34.823h18.818c2.965 0 5.369 2.404 5.369 5.369v18.818c0 19.232-15.591 34.823-34.823 34.823h-18.818c-2.966 0-5.369-2.404-5.369-5.369z" fill="#79ff79"/></g><g><path d="m311.45 207.924v18.809c0 17.803-13.355 32.488-30.599 34.566 8.516-16.775 13.321-35.751 13.321-55.856 0-.972-.011-1.933-.034-2.895h11.936c2.973.001 5.376 2.403 5.376 5.376z" fill="#29e088"/></g><g><path d="m311.451 207.912v18.821c0 19.237-15.599 34.823-34.823 34.823h-18.821c-1.49 0-2.833-.604-3.799-1.571l55.873-55.859c.966.967 1.57 2.31 1.57 3.786z" fill="#29e088"/></g><g><path d="m310.229 235.862c-4 14.807-17.532 25.694-33.601 25.694h-18.821c-1.49 0-2.833-.604-3.799-1.571l9.786-9.786c3.732.98 7.639 1.504 11.679 1.504 13.868 0 26.312-6.135 34.756-15.841z" fill="#0cc166"/><path d="m263.794 250.199-9.786 9.786c-.967-.98-1.571-2.322-1.571-3.799v-10.659c3.517 2.041 7.33 3.625 11.357 4.672z" fill="#29e088"/></g></g><g><g><path d="m252.437 256.839v-16.545c0-16.909-13.708-30.617-30.617-30.617h-16.545c-2.607 0-4.721 2.113-4.721 4.721v16.545c0 16.91 13.708 30.617 30.617 30.617h16.545c2.608-.001 4.721-2.114 4.721-4.721z" fill="#29e088"/></g><g><path d="m216.111 209.679c-1.073 2.336-2 4.47-2.794 6.415-2.224 5.387-7.108 9.075-12.763 9.913v-11.611c0-2.604 2.112-4.716 4.716-4.716h10.841z" fill="#79ff79"/></g><g><path d="m200.549 214.391v16.548c0 16.914 13.715 30.617 30.617 30.617h16.548c1.31 0 2.49-.531 3.34-1.381l-49.125-49.113c-.849.851-1.38 2.031-1.38 3.329z" fill="#79ff79"/></g><g><path d="m201.623 238.965c3.517 13.019 15.415 22.591 29.543 22.591h16.548c1.31 0 2.49-.531 3.34-1.381l-8.604-8.605c-3.281.862-6.716 1.322-10.269 1.322-12.192.001-23.134-5.393-30.558-13.927z" fill="#29e088"/><path d="m242.45 251.571 8.604 8.605c.85-.862 1.381-2.042 1.381-3.34v-9.372c-3.092 1.794-6.444 3.187-9.985 4.107z" fill="#0cc166"/></g></g></g><path d="m210.947 220.083c-2.559 3.185-6.27 5.308-10.393 5.923v-11.611c0-1.296.525-2.481 1.375-3.33z" fill="#c2ffc2"/><path d="m311.45 207.913v18.82c0 17.803-13.366 32.488-30.599 34.566 6.314-12.438 10.594-26.095 12.383-40.523l16.652-16.652c.96.973 1.564 2.314 1.564 3.789z" fill="#0cc166"/><path d="m310.232 235.863c-3.654 13.489-15.21 23.726-29.381 25.436 1.766-3.487 3.375-7.063 4.806-10.729 9.711-2.19 18.26-7.454 24.575-14.707z" fill="#04a550"/></g><g><g><g><g><g><path d="m154.452 244.962c1.478-.974 1.478-3.136 0-4.109-3.815-2.513-7.436-5.437-10.798-8.774-3.363-3.337-6.309-6.93-8.841-10.716-.981-1.467-3.16-1.467-4.141 0-2.532 3.786-5.478 7.379-8.841 10.716s-6.984 6.261-10.798 8.774c-1.478.974-1.478 3.136 0 4.109 3.815 2.513 7.436 5.437 10.798 8.774 3.363 3.337 6.309 6.93 8.841 10.716.981 1.467 3.16 1.467 4.141 0 2.532-3.786 5.478-7.379 8.841-10.716s6.984-6.261 10.798-8.774z" fill="#b6f0ff"/></g></g><g><g><path d="m154.453 244.96c-3.814 2.513-7.435 5.436-10.799 8.774s-6.309 6.931-8.842 10.717c-.982 1.464-3.158 1.464-4.139 0-2.532-3.785-5.478-7.378-8.842-10.717-.438-.434-.882-.863-1.332-1.284.594.05 1.194.074 1.801.074 11.543 0 20.953-9.097 21.341-20.459.006.006.006.006.013.012 3.364 3.338 6.984 6.261 10.799 8.774 1.476.975 1.476 3.135 0 4.109z" fill="#73e1ff"/></g></g></g></g></g><g><g><g><g><g><g><path d="m396.486 147.932c2.39-1.575 2.39-5.072 0-6.646-6.17-4.064-12.026-8.793-17.464-14.19s-10.203-11.209-14.299-17.331c-1.587-2.372-5.111-2.372-6.697 0-4.095 6.123-8.86 11.934-14.299 17.331s-11.295 10.126-17.464 14.19c-2.39 1.575-2.39 5.072 0 6.646 6.17 4.064 12.026 8.793 17.464 14.19s10.203 11.209 14.299 17.331c1.587 2.372 5.111 2.372 6.697 0 4.095-6.123 8.86-11.934 14.299-17.331s11.295-10.126 17.464-14.19z" fill="#c2ffc2"/></g></g><g><g><path d="m396.488 147.929c-6.169 4.065-12.024 8.791-17.465 14.191-5.441 5.399-10.204 11.21-14.3 17.332-1.588 2.368-5.107 2.368-6.695 0-4.096-6.122-8.859-11.933-14.299-17.332-.708-.703-1.426-1.395-2.154-2.077.961.08 1.932.12 2.913.12 18.668 0 33.888-14.712 34.515-33.088.01.01.01.01.02.02 5.441 5.399 11.296 10.126 17.465 14.191 2.386 1.575 2.386 5.068 0 6.643z" fill="#79ff79"/></g></g></g></g></g><g><g><g><g><g><path d="m355.911 124.7c1.415-.932 1.415-3.003 0-3.935-3.653-2.407-7.121-5.207-10.341-8.402s-6.042-6.637-8.467-10.262c-.94-1.405-3.026-1.405-3.966 0-2.425 3.625-5.246 7.067-8.467 10.262s-6.688 5.996-10.341 8.402c-1.415.932-1.415 3.003 0 3.935 3.653 2.407 7.121 5.207 10.341 8.402 3.22 3.196 6.042 6.637 8.467 10.262.94 1.405 3.026 1.405 3.966 0 2.425-3.625 5.246-7.067 8.467-10.262 3.22-3.196 6.688-5.996 10.341-8.402z" fill="#79ff79"/></g></g><g><g><path d="m355.912 124.698c-3.653 2.407-7.12 5.206-10.341 8.403-3.222 3.197-6.042 6.638-8.467 10.263-.94 1.402-3.024 1.402-3.964 0-2.425-3.625-5.246-7.066-8.467-10.263-.419-.416-.844-.826-1.275-1.23.569.048 1.144.071 1.725.071 11.054 0 20.066-8.712 20.437-19.592.006.006.006.006.012.012 3.222 3.197 6.689 5.996 10.341 8.403 1.412.932 1.412 3-.001 3.933z" fill="#29e088"/></g></g></g></g></g></g></g></svg>