<svg id="Icons" height="512" viewBox="0 0 60 60" width="512" xmlns="http://www.w3.org/2000/svg"><path d="m44 30v-2h-28v2a2 2 0 0 0 -2 2v23a4 4 0 0 0 4 4h24a4 4 0 0 0 4-4v-23a2 2 0 0 0 -2-2z" fill="#2ca1db"/><path d="m18 1h24a4 4 0 0 1 4 4v23a2 2 0 0 1 -2 2h-28a2 2 0 0 1 -2-2v-23a4 4 0 0 1 4-4z" fill="#4ec0f9"/><path d="m40 1v3a3 3 0 0 1 -3 3h-13a3 3 0 0 1 -3-3v-3z" fill="#1d2e49"/><path d="m38 56h-16a1 1 0 0 1 0-2h16a1 1 0 0 1 0 2z" fill="#287199"/><path d="m19 14a1 1 0 0 1 -.707-1.707l2-2a1 1 0 0 1 1.414 1.414l-2 2a1 1 0 0 1 -.707.293z" fill="#99e2ff"/><path d="m20 19a1 1 0 0 1 -.707-1.707l7-7a1 1 0 0 1 1.414 1.414l-7 7a1 1 0 0 1 -.707.293z" fill="#99e2ff"/><path d="m35 5h-4a1 1 0 0 1 0-2h4a1 1 0 0 1 0 2z" fill="#132033"/><path d="m27.049 5h-.049a1 1 0 0 1 0-2 1.02 1.02 0 0 1 1.024 1 .979.979 0 0 1 -.975 1z" fill="#132033"/><path d="m42 60h-24a5.006 5.006 0 0 1 -5-5v-23a2.987 2.987 0 0 1 .766-2 2.987 2.987 0 0 1 -.766-2v-23a5.006 5.006 0 0 1 5-5h24a5.006 5.006 0 0 1 5 5v23a2.987 2.987 0 0 1 -.766 2 2.987 2.987 0 0 1 .766 2v23a5.006 5.006 0 0 1 -5 5zm-25-30a1 1 0 0 1 -1 1 1 1 0 0 0 -1 1v23a3 3 0 0 0 3 3h24a3 3 0 0 0 3-3v-23a1 1 0 0 0 -1-1 1 1 0 0 1 0-2 1 1 0 0 0 1-1v-23a3 3 0 0 0 -3-3h-24a3 3 0 0 0 -3 3v23a1 1 0 0 0 1 1 1 1 0 0 1 1 1z" fill="#1d2e49"/></svg>