<svg id="Layer_1" enable-background="new 0 0 256 256" height="512" viewBox="0 0 256 256" width="512" xmlns="http://www.w3.org/2000/svg"><g><g><path d="m140.192 204.217h-120.785v-181.045h120.784c2.209 0 4 1.791 4 4v173.045c.001 2.209-1.79 4-3.999 4z" fill="#414042"/></g><g><g><path d="m166.954 61.033 75.199 51.283c1.962 1.338 1.962 4.231 0 5.569l-75.199 51.283c-2.237 1.526-5.27-.077-5.27-2.785v-102.565c0-2.708 3.033-4.311 5.27-2.785z" fill="#e63950"/></g><g><path d="m242.153 112.316-8.782-5.989c-.235.602-.626 1.154-1.218 1.558l-70.469 48.057v10.441c0 2.708 3.032 4.311 5.27 2.785l75.199-51.283c1.962-1.337 1.962-4.23 0-5.569z" fill="#d10028"/></g><g><path d="m97.194 92.221h64.49v45.76h-64.49c-1.862 0-3.371-1.509-3.371-3.371v-39.018c.001-1.862 1.51-3.371 3.371-3.371z" fill="#e63950"/></g><g><path d="m151.685 92.221v35.76h-57.862v6.629c0 1.862 1.509 3.371 3.371 3.371h64.49v-45.76z" fill="#d10028"/></g></g><g><path d="m113.262 232.654-93.855-28.437v-181.045l96.175 29.139c1.687.511 2.84 2.066 2.84 3.828v172.686c0 2.685-2.591 4.607-5.16 3.829z" fill="#ffa91a"/></g><g><path d="m25.41 156.729c-1.101 0-2-.89-2-2v-70c0-1.1.899-2 2-2 1.1 0 2 .9 2 2v70c0 1.111-.9 2-2 2zm0-78c-1.101 0-2-.89-2-2 0-1.1.899-2 2-2 1.1 0 2 .9 2 2 0 1.111-.9 2-2 2z" fill="#ffc91d"/></g><g><path d="m115.582 52.311-7.16-2.169v168.684c0 2.684-2.591 4.606-5.16 3.828l-83.855-25.407v6.97l93.855 28.437c2.569.778 5.16-1.144 5.16-3.828v-172.687c0-1.762-1.153-3.317-2.84-3.828z" fill="#f79219"/></g><g><path d="m115.582 52.311-2.16-.654v172.169c0 2.684-2.591 4.606-5.16 3.828l-88.855-26.922v3.485l93.855 28.437c2.569.778 5.16-1.144 5.16-3.828v-172.687c0-1.762-1.153-3.317-2.84-3.828z" fill="#ef7816"/></g><g><circle cx="93.824" cy="133.947" fill="#fff" r="8.741"/></g><g><path d="m96.971 125.8c.378.978.594 2.036.594 3.147 0 4.827-3.913 8.74-8.741 8.74-1.111 0-2.169-.215-3.147-.594 1.264 3.27 4.431 5.594 8.147 5.594 4.827 0 8.741-3.913 8.741-8.74-.001-3.716-2.324-6.882-5.594-8.147z" fill="#e6e7e8"/></g></g></svg>